#!OML:ASF F:\VICON\USERDATA\INSTALL\rory3\rory3.ASF
:FULLY-SPECIFIED
:DEGREES
808
root 5.26095 16.966 1.90049 7.31508 -14.6504 -7.00731
lowerback 21.2053 -0.646488 4.44627
upperback 4.96406 0.154799 1.27948
thorax -6.4209 -0.00496327 -1.19144
lowerneck -13.8833 -0.585261 -2.18263
upperneck 37.4385 0.314399 -1.93793
head 15.4981 -0.521149 -0.40403
rclavicle 4.47266e-014 7.55382e-015
rhumerus -34.4948 -8.14349 -16.825
rradius 34.9835
rwrist 4.48625
rhand -18.7464 -45.8236
rfingers 7.12502
rthumb 7.5499 -75.6688
lclavicle 4.47266e-014 7.55382e-015
lhumerus -35.7197 7.24953 13.0062
lradius 28.6506
lwrist 16.4041
lhand -24.1101 -29.1466
lfingers 7.12502
lthumb 2.37102 0.819995
rfemur -100.029 0.337453 27.5563
rtibia 95.6378
rfoot 48.2501 1.41768
rtoes -2.62061
lfemur -28.4004 5.87302 -24.0811
ltibia 41.1293
lfoot -17.4118 10.0166
ltoes 13.7126
809
root 5.2603 16.9649 1.89773 7.31089 -14.6079 -6.98248
lowerback 21.2432 -0.64624 4.4189
upperback 4.92884 0.153675 1.28485
thorax -6.47944 -0.00646737 -1.16963
lowerneck -13.8526 -0.612078 -2.22874
upperneck 37.4311 0.256578 -1.85742
head 15.4867 -0.540512 -0.370959
rclavicle 1.98785e-016 1.98785e-014
rhumerus -34.5691 -8.05078 -16.7911
rradius 35.0186
rwrist 4.38259
rhand -18.7202 -45.8422
rfingers 7.12502
rthumb 7.57525 -75.6865
lclavicle 1.98785e-016 1.98785e-014
lhumerus -35.6433 7.24624 13.0163
lradius 28.5388
lwrist 16.4055
lhand -24.2303 -28.4809
lfingers 7.12502
lthumb 2.25499 1.48694
rfemur -100.045 0.287328 27.5556
rtibia 95.6257
rfoot 48.2912 1.41165
rtoes -2.55247
lfemur -28.4123 5.82538 -24.0914
ltibia 41.1187
lfoot -17.485 9.97981
ltoes 14.0124
810
root 5.25974 16.9645 1.89165 7.32591 -14.6479 -7.04825
lowerback 21.3266 -0.635258 4.43975
upperback 4.89135 0.179427 1.29423
thorax -6.56251 0.00363222 -1.17787
lowerneck -13.829 -0.593762 -2.16438
upperneck 37.4641 0.284493 -1.9139
head 15.4975 -0.528109 -0.402186
rclavicle -1.39149e-015 -1.70955e-014
rhumerus -34.6172 -7.96148 -16.7899
rradius 35.0846
rwrist 4.22946
rhand -19.1368 -45.3007
rfingers 7.12502
rthumb 7.17309 -75.1591
lclavicle -1.39149e-015 -1.70955e-014
lhumerus -35.6338 7.17747 13.005
lradius 28.563
lwrist 16.5963
lhand -24.3596 -27.0784
lfingers 7.12502
lthumb 2.13006 2.89067
rfemur -100.031 0.361693 27.634
rtibia 95.5612
rfoot 48.3575 1.55392
rtoes -3.06404
lfemur -28.4642 5.82378 -24.0006
ltibia 41.12
lfoot -17.4986 9.96346
ltoes 14.2038
811
root 5.2604 16.9638 1.89318 7.32147 -14.6907 -7.07261
lowerback 21.3106 -0.641042 4.43423
upperback 4.88016 0.170982 1.30435
thorax -6.56683 -0.000550827 -1.16154
lowerneck -13.8508 -0.540769 -2.02794
upperneck 37.5523 0.404346 -2.12879
head 15.5481 -0.489983 -0.499571
rclavicle 7.55382e-014 -1.11319e-014
rhumerus -34.5381 -7.94905 -16.7517
rradius 35.0446
rwrist 3.95746
rhand -20.1288 -44.8513
rfingers 7.12502
rthumb 6.21544 -74.7401
lclavicle 7.55382e-014 -1.11319e-014
lhumerus -35.7603 7.09587 13.021
lradius 28.6226
lwrist 16.6576
lhand -24.4508 -26.4534
lfingers 7.12502
lthumb 2.04196 3.51658
rfemur -100.017 0.384601 27.6663
rtibia 95.5492
rfoot 48.2678 1.74037
rtoes -3.7361
lfemur -28.455 5.86537 -23.9807
ltibia 41.1297
lfoot -17.3745 10.0071
ltoes 13.802
812
root 5.26092 16.9636 1.89547 7.33111 -14.6447 -7.04009
lowerback 21.2572 -0.658444 4.40937
upperback 4.85669 0.142484 1.31897
thorax -6.56618 -0.0139081 -1.1241
lowerneck -13.8299 -0.54123 -2.01284
upperneck 37.5337 0.429038 -2.21074
head 15.5346 -0.488436 -0.532673
rclavicle -6.1822e-014 7.59357e-014
rhumerus -34.467 -7.98675 -16.6693
rradius 34.9302
rwrist 3.76291
rhand -20.6335 -45.2102
rfingers 7.12502
rthumb 5.72817 -75.1127
lclavicle -6.1822e-014 7.59357e-014
lhumerus -35.7819 7.23274 12.9647
lradius 28.7398
lwrist 16.8141
lhand -23.9888 -25.7163
lfingers 7.12502
lthumb 2.48817 4.24894
rfemur -100.049 0.300327 27.6487
rtibia 95.5683
rfoot 48.1372 1.94121
rtoes -4.06664
lfemur -28.4674 5.83037 -24.0199
ltibia 41.1469
lfoot -17.2925 10.0074
ltoes 13.43
813
root 5.26061 16.9637 1.89553 7.33555 -14.5839 -6.97631
lowerback 21.2135 -0.667197 4.37639
upperback 4.84139 0.121629 1.30625
thorax -6.5612 -0.0233748 -1.11367
lowerneck -13.8456 -0.569895 -2.11067
upperneck 37.5263 0.360335 -2.06139
head 15.5336 -0.510371 -0.463011
rclavicle -2.78299e-015 -1.07344e-014
rhumerus -34.4549 -8.064 -16.6184
rradius 34.7941
rwrist 3.80648
rhand -20.3655 -45.9106
rfingers 7.12502
rthumb 5.987 -75.806
lclavicle -2.78299e-015 -1.07344e-014
lhumerus -35.723 7.42774 12.8431
lradius 29.195
lwrist 17.4256
lhand -22.8117 -25.2325
lfingers 7.12502
lthumb 3.6249 4.71643
rfemur -100.103 0.20277 27.5975
rtibia 95.5879
rfoot 48.1684 1.90528
rtoes -3.88416
lfemur -28.4861 5.74629 -24.0777
ltibia 41.1698
lfoot -17.3021 9.95122
ltoes 13.7525
814
root 5.25915 16.9619 1.8947 7.34059 -14.5727 -6.98712
lowerback 21.1853 -0.675076 4.3867
upperback 4.86077 0.10993 1.29039
thorax -6.52576 -0.0283716 -1.13374
lowerneck -13.9144 -0.543578 -2.03536
upperneck 37.5877 0.391366 -2.09219
head 15.5808 -0.492265 -0.485737
rclavicle 1.21259e-014 -1.47101e-014
rhumerus -34.4859 -8.12414 -16.6558
rradius 34.8023
rwrist 3.78593
rhand -20.2142 -46.2986
rfingers 7.12502
rthumb 6.13299 -76.1898
lclavicle 1.21259e-014 -1.47101e-014
lhumerus -35.6563 7.57625 12.7661
lradius 29.1638
lwrist 17.4626
lhand -22.1835 -27.6837
lfingers 7.12502
lthumb 4.23156 2.25406
rfemur -100.131 0.183479 27.6221
rtibia 95.5959
rfoot 48.3005 1.72513
rtoes -3.45359
lfemur -28.5185 5.7313 -24.055
ltibia 41.2043
lfoot -17.3039 9.90895
ltoes 14.0003
815
root 5.25745 16.9581 1.89494 7.36718 -14.6152 -6.99344
lowerback 21.0833 -0.669262 4.37394
upperback 4.89354 0.106228 1.27518
thorax -6.43689 -0.0280709 -1.1423
lowerneck -13.8682 -0.500337 -1.90917
upperneck 37.5018 0.462294 -2.21919
head 15.5274 -0.460875 -0.548896
rclavicle 1.51076e-014 1.86858e-014
rhumerus -34.519 -8.17213 -16.7008
rradius 34.8938
rwrist 3.77945
rhand -20.2022 -46.3866
rfingers 7.12502
rthumb 6.14458 -76.2775
lclavicle 1.51076e-014 1.86858e-014
lhumerus -35.7447 7.27072 12.98
lradius 28.5597
lwrist 16.7194
lhand -23.2784 -31.9962
lfingers 7.12502
lthumb 3.17422 -2.04012
rfemur -100.184 0.231295 27.622
rtibia 95.6001
rfoot 48.3874 1.71523
rtoes -3.13634
lfemur -28.5835 5.77277 -24.0587
ltibia 41.2548
lfoot -17.3399 9.90715
ltoes 14.015
816
root 5.25712 16.9552 1.8971 7.39147 -14.6304 -6.95675
lowerback 20.9685 -0.660501 4.36633
upperback 4.89832 0.108207 1.25912
thorax -6.3714 -0.02567 -1.15609
lowerneck -13.8205 -0.522917 -2.02843
upperneck 37.3688 0.387942 -2.0237
head 15.4483 -0.479775 -0.454466
rclavicle 1.25234e-014 -3.02153e-014
rhumerus -34.5408 -8.1985 -16.6709
rradius 34.8932
rwrist 3.77515
rhand -20.1911 -46.3808
rfingers 7.12502
rthumb 6.15533 -76.2714
lclavicle 1.25234e-014 -3.02153e-014
lhumerus -35.8039 7.4652 12.8306
lradius 29.1522
lwrist 17.3086
lhand -22.2907 -27.2814
lfingers 7.12502
lthumb 4.12806 2.65832
rfemur -100.246 0.237042 27.5741
rtibia 95.6218
rfoot 48.4077 1.95803
rtoes -3.42343
lfemur -28.6254 5.75136 -24.1151
ltibia 41.3105
lfoot -17.4078 9.92168
ltoes 14.3098
817
root 5.25766 16.9524 1.89873 7.4335 -14.5981 -6.98421
lowerback 20.9408 -0.677489 4.44211
upperback 4.87865 0.10114 1.25241
thorax -6.37812 -0.0303476 -1.20458
lowerneck -13.903 -0.552852 -2.11449
upperneck 37.3839 0.307989 -1.8518
head 15.4744 -0.502282 -0.380061
rclavicle 4.77083e-015 -3.93594e-014
rhumerus -34.5268 -8.26415 -16.634
rradius 34.8412
rwrist 3.7969
rhand -20.173 -46.3765
rfingers 7.12502
rthumb 6.17275 -76.2665
lclavicle 4.77083e-015 -3.93594e-014
lhumerus -35.8265 7.30953 12.896
lradius 28.9643
lwrist 16.9309
lhand -22.7521 -23.7489
lfingers 7.12502
lthumb 3.68252 6.19907
rfemur -100.3 0.213892 27.5886
rtibia 95.6627
rfoot 48.4301 2.16064
rtoes -3.68874
lfemur -28.7098 5.6727 -24.0882
ltibia 41.3646
lfoot -17.4905 9.9231
ltoes 14.7328
818
root 5.25669 16.9472 1.89758 7.45519 -14.5573 -6.90103
lowerback 21.0006 -0.701297 4.34409
upperback 4.82036 0.0550483 1.24318
thorax -6.47588 -0.0535084 -1.14652
lowerneck -13.9657 -0.535183 -2.14602
upperneck 37.4818 0.327723 -1.80227
head 15.538 -0.493824 -0.351806
rclavicle 1.31198e-014 9.54166e-015
rhumerus -34.4287 -8.24895 -16.6253
rradius 34.7957
rwrist 3.83242
rhand -20.1388 -46.384
rfingers 7.12502
rthumb 6.20578 -76.2731
lclavicle 1.31198e-014 9.54166e-015
lhumerus -35.9195 7.05268 12.9879
lradius 28.7824
lwrist 16.7082
lhand -24.002 -23.1703
lfingers 7.12502
lthumb 2.4754 6.79504
rfemur -100.422 0.16632 27.4812
rtibia 95.7254
rfoot 48.4662 2.04508
rtoes -3.39358
lfemur -28.8117 5.58045 -24.1759
ltibia 41.3905
lfoot -17.4963 9.99065
ltoes 14.8766
819
root 5.25501 16.9448 1.89387 7.4443 -14.5144 -6.82464
lowerback 21.0835 -0.721788 4.23083
upperback 4.75362 0.0125768 1.24904
thorax -6.59479 -0.0749384 -1.06416
lowerneck -13.9848 -0.511113 -2.19914
upperneck 37.6102 0.363576 -1.75644
head 15.6068 -0.482646 -0.318669
rclavicle -3.04141e-014 3.4191e-014
rhumerus -34.3999 -8.10525 -16.6166
rradius 34.8045
rwrist 3.80736
rhand -20.0981 -46.2755
rfingers 7.12502
rthumb 6.24514 -76.1634
lclavicle -3.04141e-014 3.4191e-014
lhumerus -36.0251 6.99462 12.9336
lradius 28.5611
lwrist 16.6898
lhand -24.89 -27.4209
lfingers 7.12502
lthumb 1.61776 2.55271
rfemur -100.475 0.122047 27.3902
rtibia 95.7446
rfoot 48.436 1.91764
rtoes -3.33265
lfemur -28.8185 5.46693 -24.246
ltibia 41.3684
lfoot -17.4544 10.0979
ltoes 14.9243
820
root 5.25601 16.9486 1.89431 7.43601 -14.5229 -6.87151
lowerback 21.0058 -0.727289 4.34007
upperback 4.79346 0.0207339 1.22472
thorax -6.50966 -0.0708347 -1.1551
lowerneck -14.0103 -0.513892 -2.17809
upperneck 37.6295 0.347003 -1.73702
head 15.6223 -0.484175 -0.317266
rclavicle -4.13472e-014 1.98785e-014
rhumerus -34.5202 -8.18586 -16.6072
rradius 34.8376
rwrist 3.84252
rhand -20.0692 -46.1048
rfingers 7.12502
rthumb 6.27297 -75.9919
lclavicle -4.13472e-014 1.98785e-014
lhumerus -35.9025 7.3623 12.7378
lradius 28.1411
lwrist 16.2235
lhand -24.8866 -31.0147
lfingers 7.12502
lthumb 1.62105 -1.04113
rfemur -100.391 0.122287 27.4338
rtibia 95.6962
rfoot 48.34 1.85434
rtoes -3.56166
lfemur -28.7421 5.33585 -24.1815
ltibia 41.3043
lfoot -17.4689 10.2184
ltoes 14.8524
